<mxfile host="app.diagrams.net" modified="2024-03-04T17:44:20.374Z" agent="Mozilla/5.0 (Windows NT 10.0; Win64; x64) AppleWebKit/537.36 (KHTML, like Gecko) Chrome/122.0.0.0 Safari/537.36" etag="2WD_BXMZ6rn-IKJfoie6" version="23.1.7" type="device">
  <diagram name="Page-1" id="HHxzxT7HDGMDCwjG4vFk">
    <mxGraphModel dx="989" dy="532" grid="1" gridSize="10" guides="1" tooltips="1" connect="1" arrows="1" fold="1" page="1" pageScale="1" pageWidth="850" pageHeight="1100" math="0" shadow="0">
      <root>
        <mxCell id="0" />
        <mxCell id="1" parent="0" />
        <mxCell id="HbNd26vC9nYK1mF1l2cm-38" style="edgeStyle=none;rounded=0;orthogonalLoop=1;jettySize=auto;html=1;exitX=0.5;exitY=1;exitDx=0;exitDy=0;entryX=0.5;entryY=0;entryDx=0;entryDy=0;strokeColor=default;align=center;verticalAlign=middle;fontFamily=Helvetica;fontSize=11;fontColor=default;labelBackgroundColor=default;endArrow=none;endFill=0;" edge="1" parent="1" source="HbNd26vC9nYK1mF1l2cm-1" target="HbNd26vC9nYK1mF1l2cm-37">
          <mxGeometry relative="1" as="geometry" />
        </mxCell>
        <mxCell id="HbNd26vC9nYK1mF1l2cm-1" value="Jogo" style="whiteSpace=wrap;html=1;align=center;" vertex="1" parent="1">
          <mxGeometry x="620" y="130" width="100" height="40" as="geometry" />
        </mxCell>
        <mxCell id="HbNd26vC9nYK1mF1l2cm-17" style="edgeStyle=none;rounded=0;orthogonalLoop=1;jettySize=auto;html=1;exitX=0.75;exitY=0;exitDx=0;exitDy=0;entryX=0.25;entryY=1;entryDx=0;entryDy=0;strokeColor=default;align=center;verticalAlign=middle;fontFamily=Helvetica;fontSize=11;fontColor=default;labelBackgroundColor=default;endArrow=none;endFill=0;" edge="1" parent="1" source="HbNd26vC9nYK1mF1l2cm-2" target="HbNd26vC9nYK1mF1l2cm-1">
          <mxGeometry relative="1" as="geometry" />
        </mxCell>
        <mxCell id="HbNd26vC9nYK1mF1l2cm-19" value="*" style="edgeLabel;html=1;align=center;verticalAlign=middle;resizable=0;points=[];fontFamily=Helvetica;fontSize=11;fontColor=default;labelBackgroundColor=default;" vertex="1" connectable="0" parent="HbNd26vC9nYK1mF1l2cm-17">
          <mxGeometry x="-0.8345" y="-7" relative="1" as="geometry">
            <mxPoint x="3" y="4" as="offset" />
          </mxGeometry>
        </mxCell>
        <mxCell id="HbNd26vC9nYK1mF1l2cm-2" value="Jogador" style="whiteSpace=wrap;html=1;align=center;" vertex="1" parent="1">
          <mxGeometry x="130" y="320" width="100" height="40" as="geometry" />
        </mxCell>
        <mxCell id="HbNd26vC9nYK1mF1l2cm-6" style="edgeStyle=none;rounded=0;orthogonalLoop=1;jettySize=auto;html=1;exitX=1;exitY=0.75;exitDx=0;exitDy=0;entryX=0;entryY=0.75;entryDx=0;entryDy=0;strokeColor=default;align=center;verticalAlign=middle;fontFamily=Helvetica;fontSize=11;fontColor=default;labelBackgroundColor=default;endArrow=none;endFill=0;" edge="1" parent="1" source="HbNd26vC9nYK1mF1l2cm-3" target="HbNd26vC9nYK1mF1l2cm-1">
          <mxGeometry relative="1" as="geometry" />
        </mxCell>
        <mxCell id="HbNd26vC9nYK1mF1l2cm-3" value="Equipa" style="whiteSpace=wrap;html=1;align=center;" vertex="1" parent="1">
          <mxGeometry x="360" y="130" width="100" height="40" as="geometry" />
        </mxCell>
        <mxCell id="HbNd26vC9nYK1mF1l2cm-31" style="edgeStyle=none;rounded=0;orthogonalLoop=1;jettySize=auto;html=1;exitX=1;exitY=0.5;exitDx=0;exitDy=0;entryX=0;entryY=0;entryDx=0;entryDy=0;strokeColor=default;align=center;verticalAlign=middle;fontFamily=Helvetica;fontSize=11;fontColor=default;labelBackgroundColor=default;endArrow=none;endFill=0;" edge="1" parent="1" source="HbNd26vC9nYK1mF1l2cm-4" target="HbNd26vC9nYK1mF1l2cm-30">
          <mxGeometry relative="1" as="geometry" />
        </mxCell>
        <mxCell id="HbNd26vC9nYK1mF1l2cm-4" value="Temporada" style="whiteSpace=wrap;html=1;align=center;" vertex="1" parent="1">
          <mxGeometry x="130" y="40" width="100" height="40" as="geometry" />
        </mxCell>
        <mxCell id="HbNd26vC9nYK1mF1l2cm-5" style="rounded=0;orthogonalLoop=1;jettySize=auto;html=1;exitX=1;exitY=0.25;exitDx=0;exitDy=0;entryX=0;entryY=0.25;entryDx=0;entryDy=0;endArrow=none;endFill=0;" edge="1" parent="1" source="HbNd26vC9nYK1mF1l2cm-3" target="HbNd26vC9nYK1mF1l2cm-1">
          <mxGeometry relative="1" as="geometry" />
        </mxCell>
        <mxCell id="HbNd26vC9nYK1mF1l2cm-14" value="equipa casa" style="edgeLabel;html=1;align=center;verticalAlign=middle;resizable=0;points=[];fontFamily=Helvetica;fontSize=11;fontColor=default;labelBackgroundColor=default;" vertex="1" connectable="0" parent="HbNd26vC9nYK1mF1l2cm-5">
          <mxGeometry x="-0.3625" y="5" relative="1" as="geometry">
            <mxPoint x="2" y="-5" as="offset" />
          </mxGeometry>
        </mxCell>
        <mxCell id="HbNd26vC9nYK1mF1l2cm-7" value="1" style="text;html=1;align=center;verticalAlign=middle;resizable=0;points=[];autosize=1;strokeColor=none;fillColor=none;fontFamily=Helvetica;fontSize=11;fontColor=default;labelBackgroundColor=default;" vertex="1" parent="1">
          <mxGeometry x="460" y="108" width="30" height="30" as="geometry" />
        </mxCell>
        <mxCell id="HbNd26vC9nYK1mF1l2cm-8" value="*" style="text;html=1;align=center;verticalAlign=middle;resizable=0;points=[];autosize=1;strokeColor=none;fillColor=none;fontFamily=Helvetica;fontSize=11;fontColor=default;labelBackgroundColor=default;" vertex="1" parent="1">
          <mxGeometry x="590" y="108" width="30" height="30" as="geometry" />
        </mxCell>
        <mxCell id="HbNd26vC9nYK1mF1l2cm-10" value="1" style="text;html=1;align=center;verticalAlign=middle;resizable=0;points=[];autosize=1;strokeColor=none;fillColor=none;fontFamily=Helvetica;fontSize=11;fontColor=default;labelBackgroundColor=default;" vertex="1" parent="1">
          <mxGeometry x="460" y="160" width="30" height="30" as="geometry" />
        </mxCell>
        <mxCell id="HbNd26vC9nYK1mF1l2cm-11" value="*" style="text;html=1;align=center;verticalAlign=middle;resizable=0;points=[];autosize=1;strokeColor=none;fillColor=none;fontFamily=Helvetica;fontSize=11;fontColor=default;labelBackgroundColor=default;" vertex="1" parent="1">
          <mxGeometry x="590" y="160" width="30" height="30" as="geometry" />
        </mxCell>
        <mxCell id="HbNd26vC9nYK1mF1l2cm-13" style="edgeStyle=none;rounded=0;orthogonalLoop=1;jettySize=auto;html=1;exitX=0.5;exitY=1;exitDx=0;exitDy=0;entryX=0.5;entryY=0;entryDx=0;entryDy=0;strokeColor=default;align=center;verticalAlign=middle;fontFamily=Helvetica;fontSize=11;fontColor=default;labelBackgroundColor=default;endArrow=none;endFill=0;" edge="1" parent="1" source="HbNd26vC9nYK1mF1l2cm-12" target="HbNd26vC9nYK1mF1l2cm-1">
          <mxGeometry relative="1" as="geometry" />
        </mxCell>
        <mxCell id="HbNd26vC9nYK1mF1l2cm-12" value="resultado" style="ellipse;whiteSpace=wrap;html=1;align=center;fontFamily=Helvetica;fontSize=11;fontColor=default;labelBackgroundColor=default;" vertex="1" parent="1">
          <mxGeometry x="660" y="30" width="100" height="40" as="geometry" />
        </mxCell>
        <mxCell id="HbNd26vC9nYK1mF1l2cm-15" value="equipa visitante" style="edgeLabel;html=1;align=center;verticalAlign=middle;resizable=0;points=[];fontFamily=Helvetica;fontSize=11;fontColor=default;labelBackgroundColor=default;" vertex="1" connectable="0" parent="1">
          <mxGeometry x="520.004482758621" y="170" as="geometry" />
        </mxCell>
        <mxCell id="HbNd26vC9nYK1mF1l2cm-18" value="*" style="text;html=1;align=center;verticalAlign=middle;resizable=0;points=[];autosize=1;strokeColor=none;fillColor=none;fontFamily=Helvetica;fontSize=11;fontColor=default;labelBackgroundColor=default;" vertex="1" parent="1">
          <mxGeometry x="605" y="180" width="30" height="30" as="geometry" />
        </mxCell>
        <mxCell id="HbNd26vC9nYK1mF1l2cm-20" value="onze inicial" style="text;html=1;align=center;verticalAlign=middle;resizable=0;points=[];autosize=1;strokeColor=none;fillColor=none;fontFamily=Helvetica;fontSize=11;fontColor=default;labelBackgroundColor=default;" vertex="1" parent="1">
          <mxGeometry x="360" y="220" width="80" height="30" as="geometry" />
        </mxCell>
        <mxCell id="HbNd26vC9nYK1mF1l2cm-22" style="edgeStyle=none;rounded=0;orthogonalLoop=1;jettySize=auto;html=1;exitX=1;exitY=0.5;exitDx=0;exitDy=0;entryX=0;entryY=0.5;entryDx=0;entryDy=0;strokeColor=default;align=center;verticalAlign=middle;fontFamily=Helvetica;fontSize=11;fontColor=default;labelBackgroundColor=default;endArrow=none;endFill=0;" edge="1" parent="1" source="HbNd26vC9nYK1mF1l2cm-21" target="HbNd26vC9nYK1mF1l2cm-3">
          <mxGeometry relative="1" as="geometry" />
        </mxCell>
        <mxCell id="HbNd26vC9nYK1mF1l2cm-23" style="edgeStyle=none;rounded=0;orthogonalLoop=1;jettySize=auto;html=1;exitX=0.5;exitY=0;exitDx=0;exitDy=0;entryX=0.5;entryY=1;entryDx=0;entryDy=0;strokeColor=default;align=center;verticalAlign=middle;fontFamily=Helvetica;fontSize=11;fontColor=default;labelBackgroundColor=default;endArrow=none;endFill=0;" edge="1" parent="1" source="HbNd26vC9nYK1mF1l2cm-21" target="HbNd26vC9nYK1mF1l2cm-4">
          <mxGeometry relative="1" as="geometry" />
        </mxCell>
        <mxCell id="HbNd26vC9nYK1mF1l2cm-24" style="edgeStyle=none;rounded=0;orthogonalLoop=1;jettySize=auto;html=1;exitX=0.5;exitY=1;exitDx=0;exitDy=0;entryX=0.5;entryY=0;entryDx=0;entryDy=0;strokeColor=default;align=center;verticalAlign=middle;fontFamily=Helvetica;fontSize=11;fontColor=default;labelBackgroundColor=default;endArrow=none;endFill=0;" edge="1" parent="1" source="HbNd26vC9nYK1mF1l2cm-21" target="HbNd26vC9nYK1mF1l2cm-2">
          <mxGeometry relative="1" as="geometry" />
        </mxCell>
        <mxCell id="HbNd26vC9nYK1mF1l2cm-21" value="plantel" style="shape=rhombus;perimeter=rhombusPerimeter;whiteSpace=wrap;html=1;align=center;fontFamily=Helvetica;fontSize=11;fontColor=default;labelBackgroundColor=default;" vertex="1" parent="1">
          <mxGeometry x="120" y="120" width="120" height="60" as="geometry" />
        </mxCell>
        <mxCell id="HbNd26vC9nYK1mF1l2cm-25" value="*" style="text;html=1;align=center;verticalAlign=middle;resizable=0;points=[];autosize=1;strokeColor=none;fillColor=none;fontFamily=Helvetica;fontSize=11;fontColor=default;labelBackgroundColor=default;" vertex="1" parent="1">
          <mxGeometry x="155" y="298" width="30" height="30" as="geometry" />
        </mxCell>
        <mxCell id="HbNd26vC9nYK1mF1l2cm-26" value="*" style="text;html=1;align=center;verticalAlign=middle;resizable=0;points=[];autosize=1;strokeColor=none;fillColor=none;fontFamily=Helvetica;fontSize=11;fontColor=default;labelBackgroundColor=default;" vertex="1" parent="1">
          <mxGeometry x="155" y="78" width="30" height="30" as="geometry" />
        </mxCell>
        <mxCell id="HbNd26vC9nYK1mF1l2cm-27" value="1" style="text;html=1;align=center;verticalAlign=middle;resizable=0;points=[];autosize=1;strokeColor=none;fillColor=none;fontFamily=Helvetica;fontSize=11;fontColor=default;labelBackgroundColor=default;" vertex="1" parent="1">
          <mxGeometry x="330" y="150" width="30" height="30" as="geometry" />
        </mxCell>
        <mxCell id="HbNd26vC9nYK1mF1l2cm-29" value="Treinador" style="whiteSpace=wrap;html=1;align=center;fontFamily=Helvetica;fontSize=11;fontColor=default;labelBackgroundColor=default;" vertex="1" parent="1">
          <mxGeometry x="360" y="38" width="100" height="40" as="geometry" />
        </mxCell>
        <mxCell id="HbNd26vC9nYK1mF1l2cm-32" style="edgeStyle=none;rounded=0;orthogonalLoop=1;jettySize=auto;html=1;exitX=1;exitY=0;exitDx=0;exitDy=0;entryX=0;entryY=0.5;entryDx=0;entryDy=0;strokeColor=default;align=center;verticalAlign=middle;fontFamily=Helvetica;fontSize=11;fontColor=default;labelBackgroundColor=default;endArrow=none;endFill=0;" edge="1" parent="1" source="HbNd26vC9nYK1mF1l2cm-30" target="HbNd26vC9nYK1mF1l2cm-29">
          <mxGeometry relative="1" as="geometry" />
        </mxCell>
        <mxCell id="HbNd26vC9nYK1mF1l2cm-33" style="edgeStyle=none;rounded=0;orthogonalLoop=1;jettySize=auto;html=1;exitX=1;exitY=1;exitDx=0;exitDy=0;entryX=0;entryY=0;entryDx=0;entryDy=0;strokeColor=default;align=center;verticalAlign=middle;fontFamily=Helvetica;fontSize=11;fontColor=default;labelBackgroundColor=default;endArrow=none;endFill=0;" edge="1" parent="1" source="HbNd26vC9nYK1mF1l2cm-30" target="HbNd26vC9nYK1mF1l2cm-3">
          <mxGeometry relative="1" as="geometry" />
        </mxCell>
        <mxCell id="HbNd26vC9nYK1mF1l2cm-30" value="eq. tecnica" style="shape=rhombus;perimeter=rhombusPerimeter;whiteSpace=wrap;html=1;align=center;fontFamily=Helvetica;fontSize=11;fontColor=default;labelBackgroundColor=default;" vertex="1" parent="1">
          <mxGeometry x="250" y="68" width="90" height="50" as="geometry" />
        </mxCell>
        <mxCell id="HbNd26vC9nYK1mF1l2cm-34" value="*" style="text;html=1;align=center;verticalAlign=middle;resizable=0;points=[];autosize=1;strokeColor=none;fillColor=none;fontFamily=Helvetica;fontSize=11;fontColor=default;labelBackgroundColor=default;" vertex="1" parent="1">
          <mxGeometry x="330" y="40" width="30" height="30" as="geometry" />
        </mxCell>
        <mxCell id="HbNd26vC9nYK1mF1l2cm-35" value="*" style="text;html=1;align=center;verticalAlign=middle;resizable=0;points=[];autosize=1;strokeColor=none;fillColor=none;fontFamily=Helvetica;fontSize=11;fontColor=default;labelBackgroundColor=default;" vertex="1" parent="1">
          <mxGeometry x="225" y="38" width="30" height="30" as="geometry" />
        </mxCell>
        <mxCell id="HbNd26vC9nYK1mF1l2cm-36" value="1" style="text;html=1;align=center;verticalAlign=middle;resizable=0;points=[];autosize=1;strokeColor=none;fillColor=none;fontFamily=Helvetica;fontSize=11;fontColor=default;labelBackgroundColor=default;" vertex="1" parent="1">
          <mxGeometry x="345" y="98" width="30" height="30" as="geometry" />
        </mxCell>
        <mxCell id="HbNd26vC9nYK1mF1l2cm-56" style="edgeStyle=none;rounded=0;orthogonalLoop=1;jettySize=auto;html=1;exitX=1;exitY=0.5;exitDx=0;exitDy=0;entryX=0;entryY=0.5;entryDx=0;entryDy=0;strokeColor=default;align=center;verticalAlign=middle;fontFamily=Helvetica;fontSize=11;fontColor=default;labelBackgroundColor=default;endArrow=none;endFill=0;" edge="1" parent="1" source="HbNd26vC9nYK1mF1l2cm-37" target="HbNd26vC9nYK1mF1l2cm-55">
          <mxGeometry relative="1" as="geometry" />
        </mxCell>
        <mxCell id="HbNd26vC9nYK1mF1l2cm-37" value="Ocorrência" style="shape=ext;margin=3;double=1;whiteSpace=wrap;html=1;align=center;fontFamily=Helvetica;fontSize=11;fontColor=default;labelBackgroundColor=default;" vertex="1" parent="1">
          <mxGeometry x="620" y="258" width="100" height="40" as="geometry" />
        </mxCell>
        <mxCell id="HbNd26vC9nYK1mF1l2cm-45" style="edgeStyle=none;rounded=0;orthogonalLoop=1;jettySize=auto;html=1;exitX=0.5;exitY=0;exitDx=0;exitDy=0;entryX=0.5;entryY=1;entryDx=0;entryDy=0;strokeColor=default;align=center;verticalAlign=middle;fontFamily=Helvetica;fontSize=11;fontColor=default;labelBackgroundColor=default;endArrow=block;endFill=0;" edge="1" parent="1" source="HbNd26vC9nYK1mF1l2cm-39" target="HbNd26vC9nYK1mF1l2cm-37">
          <mxGeometry relative="1" as="geometry" />
        </mxCell>
        <mxCell id="HbNd26vC9nYK1mF1l2cm-47" style="edgeStyle=none;rounded=0;orthogonalLoop=1;jettySize=auto;html=1;exitX=0;exitY=0;exitDx=0;exitDy=0;entryX=1;entryY=0.25;entryDx=0;entryDy=0;strokeColor=default;align=center;verticalAlign=middle;fontFamily=Helvetica;fontSize=11;fontColor=default;labelBackgroundColor=default;endArrow=none;endFill=0;" edge="1" parent="1" source="HbNd26vC9nYK1mF1l2cm-39" target="HbNd26vC9nYK1mF1l2cm-2">
          <mxGeometry relative="1" as="geometry" />
        </mxCell>
        <mxCell id="HbNd26vC9nYK1mF1l2cm-39" value="Golo" style="whiteSpace=wrap;html=1;align=center;fontFamily=Helvetica;fontSize=11;fontColor=default;labelBackgroundColor=default;" vertex="1" parent="1">
          <mxGeometry x="740" y="400" width="100" height="40" as="geometry" />
        </mxCell>
        <mxCell id="HbNd26vC9nYK1mF1l2cm-44" style="edgeStyle=none;rounded=0;orthogonalLoop=1;jettySize=auto;html=1;exitX=0.5;exitY=0;exitDx=0;exitDy=0;strokeColor=default;align=center;verticalAlign=middle;fontFamily=Helvetica;fontSize=11;fontColor=default;labelBackgroundColor=default;endArrow=block;endFill=0;" edge="1" parent="1" source="HbNd26vC9nYK1mF1l2cm-40">
          <mxGeometry relative="1" as="geometry">
            <mxPoint x="670" y="300" as="targetPoint" />
          </mxGeometry>
        </mxCell>
        <mxCell id="HbNd26vC9nYK1mF1l2cm-46" style="edgeStyle=none;rounded=0;orthogonalLoop=1;jettySize=auto;html=1;exitX=0;exitY=0;exitDx=0;exitDy=0;entryX=1;entryY=0.5;entryDx=0;entryDy=0;strokeColor=default;align=center;verticalAlign=middle;fontFamily=Helvetica;fontSize=11;fontColor=default;labelBackgroundColor=default;endArrow=none;endFill=0;" edge="1" parent="1" source="HbNd26vC9nYK1mF1l2cm-40" target="HbNd26vC9nYK1mF1l2cm-2">
          <mxGeometry relative="1" as="geometry" />
        </mxCell>
        <mxCell id="HbNd26vC9nYK1mF1l2cm-64" value="1" style="edgeLabel;html=1;align=center;verticalAlign=middle;resizable=0;points=[];fontFamily=Helvetica;fontSize=11;fontColor=default;labelBackgroundColor=default;" vertex="1" connectable="0" parent="HbNd26vC9nYK1mF1l2cm-46">
          <mxGeometry x="0.7823" y="-5" relative="1" as="geometry">
            <mxPoint as="offset" />
          </mxGeometry>
        </mxCell>
        <mxCell id="HbNd26vC9nYK1mF1l2cm-66" value="*" style="edgeLabel;html=1;align=center;verticalAlign=middle;resizable=0;points=[];fontFamily=Helvetica;fontSize=11;fontColor=default;labelBackgroundColor=default;" vertex="1" connectable="0" parent="HbNd26vC9nYK1mF1l2cm-46">
          <mxGeometry x="-0.9386" y="-6" relative="1" as="geometry">
            <mxPoint as="offset" />
          </mxGeometry>
        </mxCell>
        <mxCell id="HbNd26vC9nYK1mF1l2cm-40" value="Cartão" style="whiteSpace=wrap;html=1;align=center;fontFamily=Helvetica;fontSize=11;fontColor=default;labelBackgroundColor=default;" vertex="1" parent="1">
          <mxGeometry x="605" y="400" width="100" height="40" as="geometry" />
        </mxCell>
        <mxCell id="HbNd26vC9nYK1mF1l2cm-42" style="edgeStyle=none;rounded=0;orthogonalLoop=1;jettySize=auto;html=1;exitX=0.5;exitY=0;exitDx=0;exitDy=0;entryX=0.5;entryY=1;entryDx=0;entryDy=0;strokeColor=default;align=center;verticalAlign=middle;fontFamily=Helvetica;fontSize=11;fontColor=default;labelBackgroundColor=default;endArrow=block;endFill=0;" edge="1" parent="1" source="HbNd26vC9nYK1mF1l2cm-41" target="HbNd26vC9nYK1mF1l2cm-37">
          <mxGeometry relative="1" as="geometry" />
        </mxCell>
        <mxCell id="HbNd26vC9nYK1mF1l2cm-48" style="edgeStyle=none;rounded=0;orthogonalLoop=1;jettySize=auto;html=1;exitX=0;exitY=0.5;exitDx=0;exitDy=0;entryX=1;entryY=0.75;entryDx=0;entryDy=0;strokeColor=default;align=center;verticalAlign=middle;fontFamily=Helvetica;fontSize=11;fontColor=default;labelBackgroundColor=default;endArrow=none;endFill=0;" edge="1" parent="1" source="HbNd26vC9nYK1mF1l2cm-41" target="HbNd26vC9nYK1mF1l2cm-2">
          <mxGeometry relative="1" as="geometry" />
        </mxCell>
        <mxCell id="HbNd26vC9nYK1mF1l2cm-63" value="1" style="edgeLabel;html=1;align=center;verticalAlign=middle;resizable=0;points=[];fontFamily=Helvetica;fontSize=11;fontColor=default;labelBackgroundColor=default;" vertex="1" connectable="0" parent="HbNd26vC9nYK1mF1l2cm-48">
          <mxGeometry x="0.8628" y="-6" relative="1" as="geometry">
            <mxPoint as="offset" />
          </mxGeometry>
        </mxCell>
        <mxCell id="HbNd26vC9nYK1mF1l2cm-49" style="edgeStyle=none;rounded=0;orthogonalLoop=1;jettySize=auto;html=1;exitX=0;exitY=0.75;exitDx=0;exitDy=0;entryX=1;entryY=1;entryDx=0;entryDy=0;strokeColor=default;align=center;verticalAlign=middle;fontFamily=Helvetica;fontSize=11;fontColor=default;labelBackgroundColor=default;endArrow=none;endFill=0;" edge="1" parent="1" source="HbNd26vC9nYK1mF1l2cm-41" target="HbNd26vC9nYK1mF1l2cm-2">
          <mxGeometry relative="1" as="geometry" />
        </mxCell>
        <mxCell id="HbNd26vC9nYK1mF1l2cm-41" value="Substituição" style="whiteSpace=wrap;html=1;align=center;fontFamily=Helvetica;fontSize=11;fontColor=default;labelBackgroundColor=default;" vertex="1" parent="1">
          <mxGeometry x="470" y="400" width="100" height="40" as="geometry" />
        </mxCell>
        <mxCell id="HbNd26vC9nYK1mF1l2cm-50" value="Attribute" style="ellipse;whiteSpace=wrap;html=1;align=center;fontFamily=Helvetica;fontSize=11;fontColor=default;labelBackgroundColor=default;" vertex="1" parent="1">
          <mxGeometry x="430" y="310" width="100" height="40" as="geometry" />
        </mxCell>
        <mxCell id="HbNd26vC9nYK1mF1l2cm-70" style="edgeStyle=none;rounded=0;orthogonalLoop=1;jettySize=auto;html=1;exitX=0.5;exitY=0;exitDx=0;exitDy=0;entryX=0.5;entryY=1;entryDx=0;entryDy=0;strokeColor=default;align=center;verticalAlign=middle;fontFamily=Helvetica;fontSize=11;fontColor=default;labelBackgroundColor=default;endArrow=none;endFill=0;" edge="1" parent="1" source="HbNd26vC9nYK1mF1l2cm-51" target="HbNd26vC9nYK1mF1l2cm-39">
          <mxGeometry relative="1" as="geometry" />
        </mxCell>
        <mxCell id="HbNd26vC9nYK1mF1l2cm-51" value="auto&lt;br&gt;golo" style="ellipse;whiteSpace=wrap;html=1;align=center;fontFamily=Helvetica;fontSize=11;fontColor=default;labelBackgroundColor=default;" vertex="1" parent="1">
          <mxGeometry x="780" y="490" width="60" height="40" as="geometry" />
        </mxCell>
        <mxCell id="HbNd26vC9nYK1mF1l2cm-69" style="edgeStyle=none;rounded=0;orthogonalLoop=1;jettySize=auto;html=1;exitX=0.5;exitY=0;exitDx=0;exitDy=0;entryX=0.25;entryY=1;entryDx=0;entryDy=0;strokeColor=default;align=center;verticalAlign=middle;fontFamily=Helvetica;fontSize=11;fontColor=default;labelBackgroundColor=default;endArrow=none;endFill=0;" edge="1" parent="1" source="HbNd26vC9nYK1mF1l2cm-52" target="HbNd26vC9nYK1mF1l2cm-39">
          <mxGeometry relative="1" as="geometry" />
        </mxCell>
        <mxCell id="HbNd26vC9nYK1mF1l2cm-52" value="gp" style="ellipse;whiteSpace=wrap;html=1;align=center;fontFamily=Helvetica;fontSize=11;fontColor=default;labelBackgroundColor=default;" vertex="1" parent="1">
          <mxGeometry x="700" y="490" width="60" height="40" as="geometry" />
        </mxCell>
        <mxCell id="HbNd26vC9nYK1mF1l2cm-54" style="edgeStyle=none;rounded=0;orthogonalLoop=1;jettySize=auto;html=1;exitX=0;exitY=0.5;exitDx=0;exitDy=0;entryX=0.75;entryY=0;entryDx=0;entryDy=0;strokeColor=default;align=center;verticalAlign=middle;fontFamily=Helvetica;fontSize=11;fontColor=default;labelBackgroundColor=default;endArrow=none;endFill=0;" edge="1" parent="1" source="HbNd26vC9nYK1mF1l2cm-53" target="HbNd26vC9nYK1mF1l2cm-37">
          <mxGeometry relative="1" as="geometry" />
        </mxCell>
        <mxCell id="HbNd26vC9nYK1mF1l2cm-53" value="&lt;span style=&quot;border-bottom: 1px dotted&quot;&gt;num&lt;/span&gt;" style="ellipse;whiteSpace=wrap;html=1;align=center;fontFamily=Helvetica;fontSize=11;fontColor=default;labelBackgroundColor=default;" vertex="1" parent="1">
          <mxGeometry x="750" y="210" width="100" height="40" as="geometry" />
        </mxCell>
        <mxCell id="HbNd26vC9nYK1mF1l2cm-55" value="minuto" style="ellipse;whiteSpace=wrap;html=1;align=center;fontFamily=Helvetica;fontSize=11;fontColor=default;labelBackgroundColor=default;" vertex="1" parent="1">
          <mxGeometry x="750" y="270" width="100" height="40" as="geometry" />
        </mxCell>
        <mxCell id="HbNd26vC9nYK1mF1l2cm-57" value="entra" style="text;html=1;align=center;verticalAlign=middle;resizable=0;points=[];autosize=1;strokeColor=none;fillColor=none;fontFamily=Helvetica;fontSize=11;fontColor=default;labelBackgroundColor=default;" vertex="1" parent="1">
          <mxGeometry x="295" y="350" width="50" height="30" as="geometry" />
        </mxCell>
        <mxCell id="HbNd26vC9nYK1mF1l2cm-58" value="sai" style="text;html=1;align=center;verticalAlign=middle;resizable=0;points=[];autosize=1;strokeColor=none;fillColor=none;fontFamily=Helvetica;fontSize=11;fontColor=default;labelBackgroundColor=default;" vertex="1" parent="1">
          <mxGeometry x="240" y="380" width="40" height="30" as="geometry" />
        </mxCell>
        <mxCell id="HbNd26vC9nYK1mF1l2cm-60" value="1" style="text;html=1;align=center;verticalAlign=middle;resizable=0;points=[];autosize=1;strokeColor=none;fillColor=none;fontFamily=Helvetica;fontSize=11;fontColor=default;labelBackgroundColor=default;" vertex="1" parent="1">
          <mxGeometry x="215" y="358" width="30" height="30" as="geometry" />
        </mxCell>
        <mxCell id="HbNd26vC9nYK1mF1l2cm-61" value="1" style="text;html=1;align=center;verticalAlign=middle;resizable=0;points=[];autosize=1;strokeColor=none;fillColor=none;fontFamily=Helvetica;fontSize=11;fontColor=default;labelBackgroundColor=default;" vertex="1" parent="1">
          <mxGeometry x="435" y="428" width="30" height="30" as="geometry" />
        </mxCell>
        <mxCell id="HbNd26vC9nYK1mF1l2cm-62" value="1" style="text;html=1;align=center;verticalAlign=middle;resizable=0;points=[];autosize=1;strokeColor=none;fillColor=none;fontFamily=Helvetica;fontSize=11;fontColor=default;labelBackgroundColor=default;" vertex="1" parent="1">
          <mxGeometry x="445" y="388" width="30" height="30" as="geometry" />
        </mxCell>
        <mxCell id="HbNd26vC9nYK1mF1l2cm-65" value="1" style="text;html=1;align=center;verticalAlign=middle;resizable=0;points=[];autosize=1;strokeColor=none;fillColor=none;fontFamily=Helvetica;fontSize=11;fontColor=default;labelBackgroundColor=default;" vertex="1" parent="1">
          <mxGeometry x="245" y="308" width="30" height="30" as="geometry" />
        </mxCell>
        <mxCell id="HbNd26vC9nYK1mF1l2cm-67" value="*" style="text;html=1;align=center;verticalAlign=middle;resizable=0;points=[];autosize=1;strokeColor=none;fillColor=none;fontFamily=Helvetica;fontSize=11;fontColor=default;labelBackgroundColor=default;" vertex="1" parent="1">
          <mxGeometry x="705" y="370" width="30" height="30" as="geometry" />
        </mxCell>
        <mxCell id="HbNd26vC9nYK1mF1l2cm-72" style="edgeStyle=none;rounded=0;orthogonalLoop=1;jettySize=auto;html=1;exitX=0.5;exitY=0;exitDx=0;exitDy=0;entryX=0.5;entryY=1;entryDx=0;entryDy=0;strokeColor=default;align=center;verticalAlign=middle;fontFamily=Helvetica;fontSize=11;fontColor=default;labelBackgroundColor=default;endArrow=none;endFill=0;" edge="1" parent="1" source="HbNd26vC9nYK1mF1l2cm-71" target="HbNd26vC9nYK1mF1l2cm-40">
          <mxGeometry relative="1" as="geometry" />
        </mxCell>
        <mxCell id="HbNd26vC9nYK1mF1l2cm-71" value="cor" style="ellipse;whiteSpace=wrap;html=1;align=center;fontFamily=Helvetica;fontSize=11;fontColor=default;labelBackgroundColor=default;" vertex="1" parent="1">
          <mxGeometry x="605" y="490" width="60" height="40" as="geometry" />
        </mxCell>
      </root>
    </mxGraphModel>
  </diagram>
</mxfile>
